<svg width="60" height="60" viewBox="0 0 60 60" fill="none" xmlns="http://www.w3.org/2000/svg">
<rect width="60" height="60" rx="30" fill="#FFA928"/>
<path d="M43.8 21.8H34V19H43.8V21.8ZM46.2164 35.8C45.5976 37.6158 43.3758 40 39.075 40C34.7714 40 31.2854 37.5794 31.2854 32.055C31.2854 26.581 34.5404 23.767 38.9378 23.767C43.2526 23.767 45.8874 26.2618 46.4628 29.9634C46.572 30.6718 46.6154 31.6266 46.5958 32.9594H35.358C35.54 37.4548 40.2342 37.5962 41.7812 35.8H46.2164ZM35.456 30.2H42.407C42.26 28.0342 40.8166 27.0934 38.9392 27.0934C36.8868 27.0934 35.7514 28.1686 35.456 30.2ZM22.0524 39.9832H13V19.0294H22.7342C30.4006 19.1428 30.5462 26.651 26.5422 28.6978C31.3876 30.4618 31.55 39.9832 22.0524 39.9832ZM17.2 27.4H22.2176C25.7288 27.4 26.286 23.2 21.7808 23.2H17.2V27.4ZM21.9474 31.6H17.2V35.8224H21.8774C26.1544 35.8224 25.8926 31.6 21.9474 31.6Z" fill="white"/>
</svg>
