<svg width="30" height="30" viewBox="0 0 30 30" fill="none" xmlns="http://www.w3.org/2000/svg">
<rect width="30" height="30" rx="15" fill="#171717"/>
<path d="M21.9 10.9H17V9.5H21.9V10.9ZM23.1082 17.9C22.7988 18.8079 21.6879 20 19.5375 20C17.3857 20 15.6427 18.7897 15.6427 16.0275C15.6427 13.2905 17.2702 11.8835 19.4689 11.8835C21.6263 11.8835 22.9437 13.1309 23.2314 14.9817C23.286 15.3359 23.3077 15.8133 23.2979 16.4797H17.679C17.77 18.7274 20.1171 18.7981 20.8906 17.9H23.1082ZM17.728 15.1H21.2035C21.13 14.0171 20.4083 13.5467 19.4696 13.5467C18.4434 13.5467 17.8757 14.0843 17.728 15.1ZM11.0262 19.9916H6.5V9.5147H11.3671C15.2003 9.5714 15.2731 13.3255 13.2711 14.3489C15.6938 15.2309 15.775 19.9916 11.0262 19.9916ZM8.6 13.7H11.1088C12.8644 13.7 13.143 11.6 10.8904 11.6H8.6V13.7ZM10.9737 15.8H8.6V17.9112H10.9387C13.0772 17.9112 12.9463 15.8 10.9737 15.8Z" fill="#FFA928"/>
</svg>
