<svg width="30" height="30" viewBox="0 0 30 30" fill="none" xmlns="http://www.w3.org/2000/svg">
<rect width="30" height="30" rx="15" fill="#171717"/>
<path d="M7.5 12.4936L14.7641 16.2716C14.837 16.3095 14.9179 16.3293 15 16.3293C15.0821 16.3293 15.163 16.3095 15.2359 16.2716L22.5 12.4943V19.0568C22.5 19.6228 22.2835 20.1674 21.8948 20.5788C21.5061 20.9902 20.9746 21.2373 20.4095 21.2693L20.2841 21.2727H9.71591C9.14991 21.2728 8.60534 21.0562 8.19393 20.6675C7.78252 20.2788 7.53545 19.7474 7.50341 19.1823L7.5 19.0568V12.4936ZM9.71591 9H20.2841C20.8501 8.99996 21.3947 9.21651 21.8061 9.60523C22.2175 9.99395 22.4645 10.5254 22.4966 11.0905L22.5 11.2159V11.3414L15 15.2414L7.5 11.3414V11.2159C7.49996 10.6499 7.71651 10.1053 8.10523 9.69393C8.49395 9.28252 9.02536 9.03545 9.59045 9.00341L9.71591 9H20.2841H9.71591Z" fill="#FFA928"/>
</svg>
