<svg width="27" height="40" viewBox="0 0 27 40" fill="none" xmlns="http://www.w3.org/2000/svg">
<g clip-path="url(#clip0_195_48)">
<path d="M6.92248 39.4612C10.4892 39.4612 13.384 36.5664 13.384 32.9996V26.5381H6.92248C3.35571 26.5381 0.460938 29.4329 0.460938 32.9996C0.460938 36.5664 3.35571 39.4612 6.92248 39.4612Z" fill="#0ACF83"/>
<path d="M0.460938 20.0769C0.460938 16.5101 3.35571 13.6154 6.92248 13.6154H13.384V26.5384H6.92248C3.35571 26.5384 0.460938 23.6437 0.460938 20.0769Z" fill="#A259FF"/>
<path d="M0.460938 7.15368C0.460938 3.58691 3.35571 0.692139 6.92248 0.692139H13.384V13.6152H6.92248C3.35571 13.6152 0.460938 10.7204 0.460938 7.15368Z" fill="#F24E1E"/>
<path d="M13.3848 0.692261H19.8463C23.4131 0.692261 26.3078 3.58703 26.3078 7.1538C26.3078 10.7206 23.4131 13.6153 19.8463 13.6153H13.3848V0.692261Z" fill="#FF7262"/>
<path d="M26.3078 20.0769C26.3078 23.6437 23.4131 26.5384 19.8463 26.5384C16.2795 26.5384 13.3848 23.6437 13.3848 20.0769C13.3848 16.5101 16.2795 13.6154 19.8463 13.6154C23.4131 13.6154 26.3078 16.5101 26.3078 20.0769Z" fill="#1ABCFE"/>
</g>
<defs>
<clipPath id="clip0_195_48">
<rect width="25.8462" height="38.7692" fill="white" transform="translate(0.460938 0.692383)"/>
</clipPath>
</defs>
</svg>
