<svg width="38" height="40" viewBox="0 0 38 40" fill="none" xmlns="http://www.w3.org/2000/svg">
<path d="M6.90921 7.432C8.1074 8.4087 8.56126 8.33972 10.8233 8.18843L32.1487 6.90915C32.6025 6.90915 32.2249 6.45529 32.0724 6.37904L28.5299 3.81927C27.8558 3.28916 26.948 2.69128 25.2137 2.8353L4.56971 4.34817C3.81328 4.41716 3.66199 4.79598 3.96456 5.09855L6.90921 7.432ZM8.18849 12.4063V34.8403C8.18849 36.0446 8.78758 36.4984 10.1431 36.4222L33.5805 35.0666C34.936 34.9904 35.0933 34.165 35.0933 33.1822V10.8995C35.0933 9.91552 34.7145 9.39267 33.883 9.46892L9.39394 10.8995C8.48622 10.9757 8.1897 11.4223 8.1897 12.4003L8.18849 12.4063ZM31.3233 13.6033C31.4745 14.2847 31.3233 14.9588 30.6419 15.0411L29.5139 15.2686V31.8279C28.5299 32.358 27.6294 32.6606 26.8791 32.6606C25.6688 32.6606 25.3662 32.2817 24.4645 31.1538L17.0769 19.5555V30.7761L19.4152 31.3063C19.4152 31.3063 19.4152 32.6618 17.5307 32.6618L12.3301 32.9644C12.1788 32.6618 12.3301 31.9053 12.8602 31.7601L14.2158 31.3813V16.5491L12.3313 16.3979C12.18 15.7165 12.5589 14.7398 13.6106 14.6647L19.1888 14.2859L26.8791 26.0354V15.6402L24.9184 15.4127C24.7671 14.5873 25.3662 13.9821 26.1226 13.9119L31.3233 13.6033ZM2.83657 2.31367L24.3132 0.731811C26.948 0.504276 27.6294 0.655563 29.2863 1.85981L36.1451 6.68161C37.2731 7.50704 37.6519 7.73457 37.6519 8.63624V35.0678C37.6519 36.7259 37.0467 37.7027 34.9408 37.8539L9.99062 39.3608C8.41481 39.437 7.65838 39.2095 6.8257 38.1565L1.77635 31.6004C0.874682 30.3961 0.49707 29.4944 0.49707 28.4427V4.94969C0.49707 3.59416 1.10222 2.46616 2.83536 2.31488L2.83657 2.31367Z" fill="#CDCDCD"/>
</svg>
