<svg width="40" height="40" viewBox="0 0 40 40" fill="none" xmlns="http://www.w3.org/2000/svg">
<path d="M1.7369 2.00546H38.2616V37.534H1.7369V2.00546ZM0.0761719 39.1947H39.9223V0.344727H0.0761719V39.1947ZM26.9396 16.2832C25.6275 16.2832 25.1792 16.9478 25.1792 17.4956C25.1792 18.0933 25.4781 18.5089 27.2384 19.4211C29.8455 20.6833 30.6538 21.8944 30.6538 23.6718C30.6538 26.3287 28.6288 27.756 25.8894 27.756C24.7137 27.7996 23.5452 27.5553 22.4854 27.0445C22.3687 26.9947 22.353 26.9121 22.353 26.7784V24.335C22.353 24.1685 22.4356 24.1186 22.5522 24.2026C23.5475 24.8426 24.7061 25.1825 25.8894 25.1817C27.2014 25.1817 27.7493 24.6338 27.7493 23.8867C27.7493 23.289 27.3679 22.7582 25.6901 21.8944C23.3321 20.7659 22.353 19.6175 22.353 17.7105C22.353 15.5688 24.0294 13.7928 26.9353 13.7928C27.9468 13.7494 28.9569 13.9076 29.9067 14.2582C29.9614 14.2937 30.0057 14.3431 30.0349 14.4014C30.0642 14.4596 30.0774 14.5247 30.0732 14.5897V16.8666C30.0732 16.999 29.9907 17.083 29.8242 17.0331C28.9464 16.5278 27.9481 16.2696 26.9353 16.286L26.9396 16.2832ZM12.6604 18.2584C13.0418 18.2911 13.3407 18.2911 14.0052 18.2911C15.9477 18.2911 17.7736 17.6109 17.7736 14.9711C17.7736 12.8621 16.4615 11.8005 14.2543 11.8005C13.5897 11.8005 12.9593 11.8332 12.6604 11.8503V18.2584ZM9.70471 9.43534C9.70471 9.31865 9.93667 9.23611 10.0704 9.23611C11.4975 9.1778 12.9257 9.15028 14.3539 9.15357C18.9533 9.15357 20.7464 11.6767 20.7464 14.8985C20.7464 19.1151 17.691 20.9253 13.9398 20.9253C13.3094 20.9253 13.0931 20.8925 12.6448 20.8925V27.2679C12.6448 27.4003 12.595 27.4671 12.4456 27.4671H9.90536C9.77302 27.4671 9.70613 27.4173 9.70613 27.2679V9.44246L9.70471 9.43534Z" fill="#31C5F0"/>
</svg>
