<svg width="49" height="49" viewBox="0 0 49 49" fill="none" xmlns="http://www.w3.org/2000/svg">
<path d="M43.4844 5.16199H15.2277C14.9962 5.1618 14.7668 5.20721 14.5528 5.29565C14.3388 5.38409 14.1443 5.51381 13.9804 5.67742C13.8165 5.84103 13.6865 6.03531 13.5977 6.24917C13.5089 6.46304 13.4631 6.6923 13.4629 6.92387V14.7776L29.8376 19.5854L45.2507 14.7776V6.92387C45.2505 6.69218 45.2047 6.46279 45.1158 6.24883C45.0269 6.03487 44.8967 5.84052 44.7327 5.6769C44.5686 5.51327 44.3739 5.38358 44.1598 5.29523C43.9456 5.20688 43.7161 5.1616 43.4844 5.16199Z" fill="#41A5EE"/>
<path d="M45.2507 14.7764H13.4629V24.392L29.8376 27.2767L45.2507 24.392V14.7764Z" fill="#2B7CD3"/>
<path d="M13.4629 24.3926V34.0082L28.8745 35.9313L45.2507 34.0082V24.3926H13.4629Z" fill="#185ABD"/>
<path d="M15.2277 43.6236H43.4829C43.7147 43.6242 43.9444 43.579 44.1587 43.4908C44.3731 43.4025 44.5679 43.2728 44.7321 43.1092C44.8963 42.9455 45.0266 42.7511 45.1156 42.5371C45.2046 42.323 45.2505 42.0935 45.2507 41.8617V34.0079H13.4629V41.8617C13.4631 42.0933 13.5089 42.3225 13.5977 42.5364C13.6865 42.7503 13.8165 42.9445 13.9804 43.1081C14.1443 43.2717 14.3388 43.4015 14.5528 43.4899C14.7668 43.5783 14.9962 43.6238 15.2277 43.6236Z" fill="#103F91"/>
<path opacity="0.1" d="M25.1821 12.8538H13.4629V36.8929H25.1821C25.6491 36.8905 26.0964 36.7043 26.427 36.3745C26.7576 36.0447 26.945 35.5979 26.9485 35.131V14.6156C26.945 14.1487 26.7576 13.7019 26.427 13.3721C26.0964 13.0423 25.6491 12.8561 25.1821 12.8538Z" fill="black"/>
<path opacity="0.2" d="M24.2191 13.8167H13.4629V37.8557H24.2191C24.6861 37.8534 25.1333 37.6672 25.4639 37.3374C25.7946 37.0076 25.9819 36.5608 25.9854 36.0939V15.5785C25.9819 15.1116 25.7946 14.6648 25.4639 14.335C25.1333 14.0052 24.6861 13.819 24.2191 13.8167Z" fill="black"/>
<path opacity="0.2" d="M24.2191 13.8167H13.4629V35.9326H24.2191C24.6861 35.9303 25.1333 35.7441 25.4639 35.4143C25.7946 35.0845 25.9819 34.6377 25.9854 34.1707V15.5785C25.9819 15.1116 25.7946 14.6648 25.4639 14.335C25.1333 14.0052 24.6861 13.819 24.2191 13.8167Z" fill="black"/>
<path opacity="0.2" d="M23.256 13.8167H13.4629V35.9326H23.256C23.723 35.9303 24.1703 35.7441 24.5009 35.4143C24.8315 35.0845 25.0189 34.6377 25.0224 34.1707V15.5785C25.0189 15.1116 24.8315 14.6648 24.5009 14.335C24.1703 14.0052 23.723 13.819 23.256 13.8167Z" fill="black"/>
<path d="M5.5964 13.8167H23.2566C23.7244 13.8163 24.1733 14.0016 24.5045 14.332C24.8357 14.6624 25.0222 15.1107 25.0229 15.5785V33.2092C25.0222 33.677 24.8357 34.1253 24.5045 34.4557C24.1733 34.7861 23.7244 34.9714 23.2566 34.9711H5.5964C5.3647 34.9714 5.13521 34.9262 4.92102 34.8378C4.70684 34.7495 4.51216 34.6198 4.34812 34.4562C4.18409 34.2925 4.0539 34.0982 3.96501 33.8842C3.87612 33.6702 3.83027 33.4409 3.83008 33.2092V15.5785C3.83027 15.3468 3.87612 15.1175 3.96501 14.9035C4.0539 14.6895 4.18409 14.4952 4.34812 14.3316C4.51216 14.1679 4.70684 14.0382 4.92102 13.9499C5.13521 13.8615 5.3647 13.8163 5.5964 13.8167Z" fill="url(#paint0_linear_195_89)"/>
<path d="M11.0793 27.334C11.1133 27.6062 11.137 27.8429 11.1473 28.0456H11.1888C11.2036 27.8533 11.2361 27.621 11.2849 27.3503C11.3337 27.0796 11.3766 26.8503 11.4166 26.6624L13.2731 18.6637H15.6756L17.5987 26.5426C17.7107 27.0299 17.7908 27.5241 17.8383 28.0219H17.8709C17.9062 27.5373 17.9729 27.0555 18.0706 26.5796L19.6076 18.6533H21.7926L19.0943 30.1152H16.5395L14.7096 22.5321C14.6563 22.3132 14.5962 22.0282 14.5291 21.6771C14.462 21.326 14.4206 21.0696 14.4048 20.9078H14.3738C14.353 21.0942 14.3116 21.3708 14.2495 21.7377C14.1874 22.1061 14.1385 22.3768 14.1016 22.5543L12.3811 30.1196H9.7834L7.07031 18.6637H9.28931L10.9624 26.6787C11.0124 26.895 11.0514 27.1138 11.0793 27.334Z" fill="white"/>
<defs>
<linearGradient id="paint0_linear_195_89" x1="7.51952" y1="12.432" x2="21.3335" y2="36.3557" gradientUnits="userSpaceOnUse">
<stop stop-color="#2368C4"/>
<stop offset="0.5" stop-color="#1A5DBE"/>
<stop offset="1" stop-color="#1146AC"/>
</linearGradient>
</defs>
</svg>
