<svg width="49" height="48" viewBox="0 0 49 48" fill="none" xmlns="http://www.w3.org/2000/svg">
<path d="M28.7234 26.002L25.8314 4.82703H25.6152C20.5665 4.8356 15.7265 6.84257 12.1532 10.4092C8.57989 13.9759 6.56389 18.8121 6.5459 23.8608V24.077L28.7234 26.002Z" fill="#ED6C47"/>
<path d="M26.0472 4.82703H25.8311V24.077L35.4723 27.927L45.1151 24.077V23.8608C45.0971 18.8124 43.0813 13.9764 39.5083 10.4098C35.9353 6.84314 31.0957 4.836 26.0472 4.82703Z" fill="#FF8F6B"/>
<path d="M45.1155 24.077V24.2888C45.0967 29.3382 43.0802 34.1749 39.5066 37.7421C35.9329 41.3094 31.0926 43.3173 26.0432 43.327H25.6182C20.569 43.3165 15.7292 41.3084 12.1557 37.7413C8.5822 34.1742 6.56545 29.3379 6.5459 24.2888V24.077H45.1155Z" fill="#D35230"/>
<path opacity="0.1" d="M26.7954 14.2877V34.8275C26.7928 35.1769 26.6871 35.5179 26.4917 35.8076C26.2962 36.0973 26.0197 36.323 25.6967 36.4563C25.4858 36.5452 25.2592 36.591 25.0304 36.5911H11.0978C10.8275 36.281 10.5701 35.9599 10.3263 35.6286C7.87014 32.359 6.54334 28.3797 6.54591 24.2903V23.8668C6.54126 20.1781 7.62108 16.5695 9.65109 13.4896C9.8616 13.1588 10.0869 12.8376 10.3263 12.5271H25.0304C25.4968 12.5302 25.9433 12.7165 26.2735 13.0459C26.6037 13.3753 26.7912 13.8213 26.7954 14.2877Z" fill="black"/>
<path opacity="0.2" d="M25.8314 15.2523V35.7921C25.8314 36.02 25.7856 36.2456 25.6967 36.4555C25.5631 36.7782 25.3373 37.0544 25.0476 37.2496C24.7579 37.4447 24.4171 37.5502 24.0679 37.5527H11.9759C11.6709 37.2428 11.3782 36.9219 11.0978 36.5902C10.8275 36.2802 10.5701 35.9591 10.3263 35.6277C7.87014 32.3582 6.54334 28.3788 6.54591 24.2895V23.866C6.54155 20.1778 7.62136 16.5697 9.65108 13.4902H24.0664C24.533 13.4933 24.9797 13.6799 25.31 14.0096C25.6403 14.3393 25.8276 14.7857 25.8314 15.2523Z" fill="black"/>
<path opacity="0.2" d="M25.8314 15.2523V33.8671C25.8272 34.3335 25.6397 34.7795 25.3095 35.1089C24.9793 35.4383 24.5328 35.6246 24.0664 35.6277H10.3263C7.87014 32.3582 6.54334 28.3788 6.54591 24.2895V23.866C6.54155 20.1778 7.62136 16.5697 9.65108 13.4902H24.0664C24.533 13.4933 24.9797 13.6799 25.31 14.0096C25.6403 14.3393 25.8276 14.7857 25.8314 15.2523Z" fill="black"/>
<path opacity="0.2" d="M24.8675 15.2523V33.8671C24.8632 34.3335 24.6757 34.7795 24.3455 35.1089C24.0153 35.4383 23.5688 35.6246 23.1024 35.6277H10.3263C7.87014 32.3582 6.54334 28.3788 6.54591 24.2895V23.866C6.54155 20.1778 7.62136 16.5697 9.65108 13.4902H23.1024C23.569 13.4933 24.0158 13.6799 24.346 14.0096C24.6763 14.3393 24.8636 14.7857 24.8675 15.2523Z" fill="black"/>
<path d="M5.42234 13.4902H23.0998C23.568 13.4898 24.0173 13.6754 24.3488 14.0061C24.6803 14.3368 24.867 14.7856 24.8678 15.2538V32.9016C24.867 33.3699 24.6803 33.8187 24.3488 34.1494C24.0173 34.4801 23.568 34.6656 23.0998 34.6652H5.42234C5.19042 34.6656 4.9607 34.6203 4.7463 34.5319C4.53191 34.4434 4.33704 34.3136 4.17285 34.1498C4.00865 33.986 3.87834 33.7915 3.78936 33.5773C3.70039 33.3632 3.65449 33.1336 3.6543 32.9016V15.2538C3.65449 15.0219 3.70039 14.7923 3.78936 14.5781C3.87834 14.364 4.00865 14.1694 4.17285 14.0056C4.33704 13.8419 4.53191 13.712 4.7463 13.6236C4.9607 13.5352 5.19042 13.4898 5.42234 13.4902Z" fill="url(#paint0_linear_195_65)"/>
<path d="M14.4525 18.1955C15.6033 18.1181 16.7441 18.4519 17.6717 19.1373C18.0531 19.4768 18.3522 19.8988 18.5461 20.3711C18.7401 20.8435 18.8239 21.3538 18.7912 21.8634C18.8041 22.5812 18.6126 23.2879 18.2389 23.901C17.8608 24.5042 17.3161 24.985 16.6707 25.2855C15.9333 25.6275 15.1275 25.7966 14.3148 25.78H12.0744V29.9262H9.78516V18.1955H14.4525ZM12.0729 23.9883H14.0438C14.6687 24.0334 15.2886 23.8485 15.7867 23.4686C15.9904 23.2743 16.149 23.0377 16.2514 22.7754C16.3537 22.5132 16.3973 22.2317 16.379 21.9508C16.379 20.6586 15.6263 20.012 14.1208 20.011H12.0729V23.9883Z" fill="white"/>
<defs>
<linearGradient id="paint0_linear_195_65" x1="7.34734" y1="12.1042" x2="21.1748" y2="36.0512" gradientUnits="userSpaceOnUse">
<stop stop-color="#CA4C28"/>
<stop offset="0.5" stop-color="#C5401E"/>
<stop offset="1" stop-color="#B62F14"/>
</linearGradient>
</defs>
</svg>
