<svg width="49" height="49" viewBox="0 0 49 49" fill="none" xmlns="http://www.w3.org/2000/svg">
<path d="M29.8254 23.4069L13.0254 20.4473V42.3166C13.0256 42.5541 13.0726 42.7894 13.1637 43.0088C13.2548 43.2282 13.3882 43.4275 13.5564 43.5954C13.7245 43.7632 13.924 43.8963 14.1436 43.9871C14.3632 44.0778 14.5985 44.1244 14.8361 44.1242H43.8251C44.063 44.1248 44.2986 44.0785 44.5185 43.9879C44.7385 43.8974 44.9384 43.7644 45.1068 43.5965C45.2753 43.4286 45.409 43.2291 45.5003 43.0095C45.5916 42.7899 45.6387 42.5544 45.6389 42.3166V34.2588L29.8254 23.4069Z" fill="#185C37"/>
<path d="M29.8254 4.66211H14.8361C14.5985 4.66191 14.3632 4.70851 14.1436 4.79924C13.924 4.88998 13.7245 5.02307 13.5564 5.19093C13.3882 5.35878 13.2548 5.55811 13.1637 5.77753C13.0726 5.99695 13.0256 6.23217 13.0254 6.46975V14.5275L29.8254 24.3929L38.7209 27.3525L45.6389 24.3929V14.5275L29.8254 4.66211Z" fill="#21A366"/>
<path d="M13.0254 14.5283H29.8254V24.3937H13.0254V14.5283Z" fill="#107C41"/>
<path opacity="0.1" d="M25.049 12.5557H13.0254V37.2191H25.049C25.5281 37.2168 25.987 37.0257 26.3262 36.6873C26.6654 36.349 26.8576 35.8906 26.8612 35.4115V14.3633C26.8576 13.8842 26.6654 13.4258 26.3262 13.0875C25.987 12.7491 25.5281 12.558 25.049 12.5557Z" fill="black"/>
<path opacity="0.2" d="M24.061 13.542H13.0254V38.2055H24.061C24.5401 38.2031 24.9989 38.012 25.3382 37.6737C25.6774 37.3353 25.8696 36.8769 25.8732 36.3978V15.3496C25.8696 14.8705 25.6774 14.4122 25.3382 14.0738C24.9989 13.7354 24.5401 13.5444 24.061 13.542Z" fill="black"/>
<path opacity="0.2" d="M24.061 13.542H13.0254V36.2324H24.061C24.5401 36.23 24.9989 36.0389 25.3382 35.7006C25.6774 35.3622 25.8696 34.9039 25.8732 34.4248V15.3496C25.8696 14.8705 25.6774 14.4122 25.3382 14.0738C24.9989 13.7354 24.5401 13.5444 24.061 13.542Z" fill="black"/>
<path opacity="0.2" d="M23.0729 13.542H13.0254V36.2324H23.0729C23.552 36.23 24.0109 36.0389 24.3501 35.7006C24.6893 35.3622 24.8815 34.9039 24.8851 34.4248V15.3496C24.8815 14.8705 24.6893 14.4122 24.3501 14.0738C24.0109 13.7354 23.552 13.5444 23.0729 13.542Z" fill="black"/>
<path d="M4.95282 13.542H23.0718C23.5517 13.5416 24.0122 13.7318 24.352 14.0707C24.6918 14.4097 24.8832 14.8697 24.884 15.3496V33.4382C24.8832 33.9182 24.6918 34.3782 24.352 34.7171C24.0122 35.0561 23.5517 35.2463 23.0718 35.2459H4.95282C4.71511 35.2463 4.47965 35.1998 4.2599 35.1092C4.04016 35.0185 3.84042 34.8855 3.67213 34.7176C3.50383 34.5497 3.37026 34.3503 3.27906 34.1308C3.18787 33.9113 3.14082 33.6759 3.14062 33.4382V15.3496C3.14082 15.1119 3.18787 14.8766 3.27906 14.6571C3.37026 14.4375 3.50383 14.2381 3.67213 14.0703C3.84042 13.9024 4.04016 13.7693 4.2599 13.6787C4.47965 13.588 4.71511 13.5416 4.95282 13.542Z" fill="url(#paint0_linear_195_75)"/>
<path d="M8.75781 30.2712L12.5689 24.3762L9.07806 18.5146H11.8813L13.7861 22.2681C13.9622 22.6232 14.0897 22.8873 14.1474 23.0634H14.1732C14.2976 22.778 14.4297 22.5033 14.5678 22.2347L16.6046 18.5207H19.1848L15.6044 24.3489L19.2758 30.2757H16.5302L14.3295 26.1611C14.2273 25.9842 14.1405 25.7988 14.0699 25.6071H14.0335C13.9693 25.7939 13.8838 25.9727 13.7785 26.1398L11.5125 30.2712H8.75781Z" fill="white"/>
<path d="M43.8255 4.66211H29.8242V14.5275H45.6377V6.46976C45.6375 6.23205 45.5904 5.9967 45.4992 5.77718C45.4081 5.55766 45.2745 5.35827 45.1062 5.19039C44.9379 5.02252 44.7382 4.88945 44.5184 4.79881C44.2987 4.70816 44.0632 4.66171 43.8255 4.66211Z" fill="#33C481"/>
<path d="M29.8242 24.3933H45.6377V34.2587H29.8242V24.3933Z" fill="#107C41"/>
<defs>
<linearGradient id="paint0_linear_195_75" x1="6.9259" y1="12.1214" x2="21.0987" y2="36.6665" gradientUnits="userSpaceOnUse">
<stop stop-color="#18884F"/>
<stop offset="0.5" stop-color="#117E43"/>
<stop offset="1" stop-color="#0B6631"/>
</linearGradient>
</defs>
</svg>
