<svg width="60" height="60" viewBox="0 0 60 60" fill="none" xmlns="http://www.w3.org/2000/svg">
<rect width="60" height="60" rx="30" fill="#FFA928"/>
<path d="M15 24.9873L29.5282 32.5432C29.6739 32.619 29.8357 32.6585 30 32.6585C30.1643 32.6585 30.3261 32.619 30.4718 32.5432L45 24.9886V38.1136C45.0001 39.2456 44.567 40.3348 43.7895 41.1576C43.0121 41.9804 41.9493 42.4745 40.8191 42.5386L40.5682 42.5455H19.4318C18.2998 42.5455 17.2107 42.1124 16.3879 41.335C15.565 40.5576 15.0709 39.4947 15.0068 38.3645L15 38.1136V24.9873ZM19.4318 18H40.5682C41.7002 17.9999 42.7893 18.433 43.6121 19.2105C44.435 19.9879 44.9291 21.0507 44.9932 22.1809L45 22.4318V22.6827L30 30.4827L15 22.6827V22.4318C14.9999 21.2998 15.433 20.2107 16.2105 19.3879C16.9879 18.565 18.0507 18.0709 19.1809 18.0068L19.4318 18H40.5682H19.4318Z" fill="#171717"/>
</svg>
