<svg width="60" height="60" viewBox="0 0 60 60" fill="none" xmlns="http://www.w3.org/2000/svg">
<rect width="60" height="60" rx="30" fill="#FFA928"/>
<path d="M34.3414 35.478L36.5812 33.2383C36.8829 32.9403 37.2645 32.7364 37.6799 32.6512C38.0952 32.566 38.5263 32.6032 38.9209 32.7583L41.6506 33.8482C42.0494 34.0101 42.3913 34.2863 42.6333 34.6422C42.8753 34.9981 43.0065 35.4176 43.0105 35.848V40.8474C43.0082 41.1402 42.9466 41.4294 42.8296 41.6978C42.7125 41.9661 42.5424 42.208 42.3294 42.4088C42.1164 42.6097 41.8649 42.7654 41.5902 42.8665C41.3155 42.9676 41.0231 43.0121 40.7307 42.9972C21.6028 41.8073 17.7432 25.6091 17.0133 19.4098C16.9794 19.1053 17.0104 18.7972 17.1042 18.5056C17.1979 18.214 17.3524 17.9455 17.5573 17.7179C17.7623 17.4903 18.0131 17.3086 18.2933 17.1849C18.5735 17.0612 18.8768 16.9982 19.1831 17H24.0126C24.4435 17.0013 24.8642 17.1315 25.2206 17.3738C25.577 17.6162 25.8527 17.9596 26.0123 18.3599L27.1022 21.0896C27.2625 21.4826 27.3033 21.9141 27.2198 22.3303C27.1362 22.7464 26.9318 23.1287 26.6323 23.4293L24.3925 25.6691C24.3925 25.6691 25.6824 34.3981 34.3414 35.478Z" fill="#171717"/>
</svg>
