<svg width="30" height="26" viewBox="0 0 30 26" fill="none" xmlns="http://www.w3.org/2000/svg">
<path d="M9.51161e-09 7.72842L14.5282 15.2843C14.6739 15.3601 14.8357 15.3997 15 15.3997C15.1643 15.3997 15.3261 15.3601 15.4718 15.2843L30 7.72979V20.8548C30.0001 21.9868 29.567 23.0759 28.7895 23.8987C28.0121 24.7216 26.9493 25.2157 25.8191 25.2798L25.5682 25.2866H4.43182C3.29981 25.2867 2.21069 24.8536 1.38787 24.0761C0.565046 23.2987 0.0709073 22.2359 0.00681835 21.1057L9.51161e-09 20.8548V7.72842ZM4.43182 0.74115H25.5682C26.7002 0.741076 27.7893 1.17418 28.6121 1.95161C29.435 2.72904 29.9291 3.79187 29.9932 4.92206L30 5.17297V5.42388L15 13.2239L9.51161e-09 5.42388V5.17297C-7.41092e-05 4.04096 0.433028 2.95184 1.21046 2.12902C1.98789 1.3062 3.05072 0.812057 4.18091 0.747968L4.43182 0.74115H25.5682H4.43182Z" fill="#FFA928"/>
</svg>
