<svg width="22" height="23" viewBox="0 0 22 23" fill="none" xmlns="http://www.w3.org/2000/svg">
<path d="M14.6676 16.379L16.562 14.4845C16.8172 14.2325 17.14 14.0601 17.4913 13.988C17.8426 13.9159 18.2072 13.9474 18.541 14.0786L20.8498 15.0004C21.1871 15.1373 21.4763 15.371 21.681 15.672C21.8857 15.973 21.9967 16.3279 22 16.6919V20.9205C21.998 21.1681 21.946 21.4127 21.847 21.6397C21.748 21.8667 21.6041 22.0712 21.4239 22.2411C21.2438 22.411 21.0311 22.5427 20.7987 22.6282C20.5663 22.7137 20.3191 22.7513 20.0718 22.7388C3.89312 21.7324 0.628639 8.03169 0.0112629 2.78822C-0.0173962 2.53073 0.00878882 2.27009 0.0880951 2.02344C0.167401 1.7768 0.298031 1.54974 0.471392 1.35721C0.644752 1.16467 0.856914 1.01103 1.09392 0.906378C1.33092 0.801727 1.5874 0.748445 1.84648 0.750035H5.93131C6.29582 0.751114 6.65168 0.861219 6.9531 1.06619C7.25453 1.27116 7.48774 1.56162 7.62275 1.90021L8.54458 4.20903C8.68011 4.54146 8.71469 4.90645 8.644 5.25841C8.5733 5.61037 8.40047 5.93371 8.14709 6.18802L6.25268 8.08243C6.25268 8.08243 7.34366 15.4656 14.6676 16.379Z" fill="#FFA928"/>
</svg>
