<svg width="30" height="30" viewBox="0 0 30 30" fill="none" xmlns="http://www.w3.org/2000/svg">
<path d="M27 4.5H13.32L12 0H3C1.35 0 0 1.35 0 3V22.5C0 24.15 1.35 25.5 3 25.5H13.5L15 30H27C28.65 30 30 28.65 30 27V7.5C30 5.85 28.65 4.5 27 4.5ZM7.755 18.885C4.38 18.885 1.62 16.14 1.62 12.75C1.62 9.36 4.365 6.615 7.755 6.615C9.315 6.615 10.74 7.17 11.865 8.22L11.97 8.31L10.125 10.08L10.035 10.005C9.6 9.6 8.865 9.12 7.755 9.12C5.79 9.12 4.185 10.755 4.185 12.75C4.185 14.745 5.79 16.38 7.755 16.38C9.81 16.38 10.695 15.075 10.935 14.19H7.62V11.865H13.545L13.56 11.97C13.62 12.285 13.635 12.57 13.635 12.885C13.635 16.41 11.22 18.885 7.755 18.885ZM16.005 13.62H21.99C21.99 13.62 21.48 15.585 19.65 17.73C18.87 16.8 18.315 15.885 17.955 15.18H16.47L16.005 13.62ZM18.585 18.87L17.775 19.665L16.8 16.32C17.295 17.22 17.91 18.09 18.585 18.87ZM28.5 27C28.5 27.825 27.825 28.5 27 28.5H16.5L19.5 25.5L18.285 21.345L19.665 19.965L23.685 24L24.78 22.905L20.715 18.885C22.065 17.34 23.115 15.51 23.595 13.62H25.5V12.06H20.04V10.5H18.48V12.06H15.54L13.77 6H27C27.825 6 28.5 6.675 28.5 7.5V27Z" fill="#FFA928"/>
</svg>
